<svg width="26" height="25" viewBox="0 0 26 25" fill="none" xmlns="http://www.w3.org/2000/svg">
<path d="M9.95041 21.3513C9.95039 21.1986 9.91678 21.0478 9.85196 20.9095C9.78714 20.7712 9.69269 20.6488 9.57532 20.5511C9.45795 20.4534 9.32052 20.3827 9.17278 20.344C9.02504 20.3053 8.87059 20.2996 8.72039 20.3272C7.35714 20.5774 5.63591 20.6151 5.17827 19.3296C4.77922 18.334 4.11822 17.465 3.26534 16.8147C3.20449 16.7816 3.1465 16.7435 3.09195 16.7008C3.01731 16.5039 2.88473 16.3342 2.71171 16.2142C2.53868 16.0942 2.33334 16.0295 2.12277 16.0285H2.11769C1.84235 16.0284 1.57818 16.1374 1.38301 16.3316C1.18783 16.5259 1.07756 16.7895 1.07631 17.0648C1.07224 17.914 1.92087 18.4581 2.26515 18.6422C2.67112 19.0501 2.9974 19.5302 3.22721 20.0578C3.60654 21.1236 4.70894 22.7406 7.87783 22.5321C7.87887 22.5687 7.87986 22.6033 7.88037 22.6348L7.88494 22.9135C7.88494 23.1897 7.99466 23.4545 8.18995 23.6498C8.38525 23.8451 8.65013 23.9549 8.92632 23.9549C9.20251 23.9549 9.46739 23.8451 9.66269 23.6498C9.85799 23.4545 9.9677 23.1897 9.9677 22.9135L9.96262 22.5819C9.95754 22.3846 9.95041 22.0988 9.95041 21.3513ZM21.0588 5.59941C21.0919 5.46924 21.1244 5.32483 21.1529 5.16211C21.3213 4.00159 21.1745 2.81712 20.7278 1.73285C20.6714 1.59149 20.5848 1.46418 20.4741 1.35983C20.3633 1.25548 20.2311 1.17662 20.0866 1.12877C19.7159 1.00368 18.3471 0.757572 15.7294 2.4305C13.5535 1.91845 11.2884 1.91845 9.11245 2.4305C6.50542 0.782076 5.14369 1.00576 4.77656 1.12373C4.62855 1.16964 4.49268 1.24808 4.37891 1.35331C4.26515 1.45855 4.17637 1.5879 4.11909 1.7319C3.66328 2.83699 3.51805 4.04561 3.69908 5.22723C3.72451 5.36045 3.75196 5.48351 3.78044 5.59639C2.91773 6.74549 2.45821 8.14711 2.47312 9.58394C2.47031 9.90452 2.48508 10.225 2.51736 10.544C2.86518 15.337 5.98932 16.776 8.16613 17.2702C8.12089 17.4004 8.0797 17.5397 8.04308 17.6872C7.97783 17.9551 8.0215 18.238 8.16451 18.4738C8.30752 18.7096 8.5382 18.8791 8.80597 18.945C9.07374 19.011 9.35674 18.9681 9.59291 18.8257C9.82909 18.6833 9.99916 18.4531 10.0658 18.1855C10.1321 17.8385 10.3019 17.5198 10.553 17.2712C10.7048 17.1384 10.8147 16.9642 10.8693 16.77C10.9239 16.5758 10.921 16.3699 10.8607 16.1774C10.8005 15.9849 10.6856 15.814 10.5301 15.6855C10.3745 15.5571 10.1849 15.4766 9.98449 15.4539C6.38746 15.0431 4.82588 13.5776 4.59097 10.3528C4.56495 10.0974 4.55323 9.84068 4.55589 9.58395C4.53918 8.55992 4.87749 7.56167 5.51336 6.7588C5.57725 6.6751 5.64531 6.59465 5.71726 6.51777C5.84476 6.37511 5.93049 6.20007 5.96502 6.01188C5.99956 5.82368 5.98158 5.62961 5.91304 5.45097C5.84279 5.26303 5.78869 5.06944 5.75135 4.87231C5.66651 4.31175 5.69434 3.7399 5.8332 3.19023C6.7383 3.44586 7.59013 3.86196 8.34814 4.41872C8.47349 4.50222 8.61532 4.55778 8.76403 4.58164C8.91274 4.60551 9.06484 4.59712 9.21002 4.55704C11.3148 3.98584 13.5338 3.9862 15.6383 4.55808C15.7843 4.59811 15.9372 4.60602 16.0865 4.58127C16.2358 4.55652 16.378 4.49969 16.5032 4.41469C17.2577 3.85562 18.106 3.43579 19.0081 3.175C19.1463 3.71147 19.1772 4.26997 19.0991 4.81843C19.0614 5.03455 19.0024 5.24643 18.9231 5.45099C18.8546 5.62963 18.8366 5.8237 18.8712 6.0119C18.9057 6.20009 18.9914 6.37513 19.1189 6.51779C19.1993 6.6083 19.2796 6.70593 19.3518 6.79746C19.9832 7.58674 20.3158 8.5735 20.291 9.58394C20.2929 9.85429 20.2798 10.1245 20.2518 10.3934C20.0225 13.5756 18.4549 15.042 14.841 15.4539C14.6405 15.4767 14.451 15.5573 14.2954 15.6859C14.1399 15.8145 14.025 15.9855 13.9649 16.1781C13.9047 16.3707 13.9018 16.5767 13.9565 16.7709C14.0112 16.9652 14.1212 17.1394 14.2731 17.2723C14.532 17.5274 14.7022 17.8589 14.7587 18.218C14.829 18.4968 14.8614 18.7838 14.8548 19.0713V21.5019C14.8446 22.1761 14.8446 22.6815 14.8446 22.9134C14.8446 23.1896 14.9543 23.4545 15.1496 23.6498C15.3449 23.8451 15.6098 23.9548 15.886 23.9548C16.1622 23.9548 16.427 23.8451 16.6223 23.6498C16.8176 23.4545 16.9273 23.1896 16.9273 22.9134C16.9273 22.6876 16.9273 22.1924 16.9375 21.5181V19.0713C16.9459 18.6108 16.8917 18.1513 16.7763 17.7055C16.7433 17.5591 16.7029 17.4145 16.6553 17.2723C18.2395 17.0091 19.6789 16.1923 20.7173 14.9673C21.7557 13.7423 22.3258 12.1885 22.3259 10.5826C22.3603 10.2509 22.3762 9.91746 22.3738 9.58394C22.3969 8.14556 21.9335 6.74152 21.0588 5.59943L21.0588 5.59941Z" fill="white" fill-opacity="0.5"/>
</svg>
