<svg width="27" height="27" viewBox="0 0 27 27" fill="none" xmlns="http://www.w3.org/2000/svg">
<path d="M12.2316 7.71845C11.1412 7.71845 10.0753 8.0418 9.16862 8.64759C8.26198 9.25339 7.55534 10.1144 7.13806 11.1218C6.72078 12.1292 6.6116 13.2378 6.82433 14.3072C7.03706 15.3767 7.56214 16.359 8.33317 17.1301C9.1042 17.9011 10.0866 18.4262 11.156 18.6389C12.2255 18.8516 13.334 18.7425 14.3414 18.3252C15.3488 17.9079 16.2098 17.2013 16.8156 16.2946C17.4214 15.388 17.7448 14.3221 17.7448 13.2316C17.7448 11.7695 17.1639 10.3672 16.13 9.33323C15.0961 8.29931 13.6938 7.71845 12.2316 7.71845ZM12.2316 16.5396C11.5773 16.5396 10.9378 16.3456 10.3938 15.9821C9.84982 15.6186 9.42584 15.102 9.17547 14.4975C8.9251 13.8931 8.85959 13.228 8.98723 12.5863C9.11487 11.9446 9.42992 11.3552 9.89254 10.8926C10.3552 10.43 10.9446 10.1149 11.5862 9.98729C12.2279 9.85966 12.893 9.92516 13.4975 10.1755C14.1019 10.4259 14.6185 10.8499 14.982 11.3939C15.3455 11.9379 15.5395 12.5774 15.5395 13.2316C15.5395 14.109 15.191 14.9503 14.5706 15.5707C13.9503 16.1911 13.1089 16.5396 12.2316 16.5396ZM17.7448 6.61582C17.5267 6.61582 17.3135 6.68048 17.1322 6.80164C16.9509 6.9228 16.8095 7.09501 16.7261 7.29649C16.6426 7.49797 16.6208 7.71968 16.6633 7.93357C16.7059 8.14746 16.8109 8.34393 16.9651 8.49814C17.1193 8.65234 17.3158 8.75736 17.5297 8.79991C17.7436 8.84245 17.9653 8.82062 18.1667 8.73716C18.3682 8.6537 18.5404 8.51238 18.6616 8.33105C18.7828 8.14972 18.8474 7.93654 18.8474 7.71845C18.8474 7.42602 18.7312 7.14556 18.5245 6.93877C18.3177 6.73199 18.0372 6.61582 17.7448 6.61582ZM23.1918 9.08573C23.1735 8.14344 22.9946 7.21118 22.6625 6.32913C22.3547 5.52648 21.8814 4.79756 21.2736 4.18968C20.6657 3.5818 19.9368 3.10856 19.1341 2.80069C18.2521 2.46868 17.3198 2.28969 16.3775 2.27142C15.3079 2.20526 14.9551 2.20526 12.2316 2.20526C9.50807 2.20526 9.15522 2.20526 8.08566 2.27142C7.14338 2.28969 6.21112 2.46868 5.32907 2.80069C4.52642 3.10856 3.79749 3.5818 3.18962 4.18968C2.58174 4.79756 2.1085 5.52648 1.80063 6.32913C1.46862 7.21118 1.28963 8.14344 1.27136 9.08573C1.2052 10.1663 1.2052 10.5192 1.2052 13.2316C1.2052 15.9441 1.2052 16.297 1.27136 17.3776C1.28963 18.3199 1.46862 19.2521 1.80063 20.1342C2.1085 20.9368 2.58174 21.6657 3.18962 22.2736C3.79749 22.8815 4.52642 23.3547 5.32907 23.6626C6.21112 23.9946 7.14338 24.1736 8.08566 24.1919C9.1883 24.1919 9.50807 24.258 12.2316 24.258C14.9551 24.258 15.3079 24.258 16.3775 24.1919C17.3198 24.1736 18.2521 23.9946 19.1341 23.6626C19.9368 23.3547 20.6657 22.8815 21.2736 22.2736C21.8814 21.6657 22.3547 20.9368 22.6625 20.1342C22.9946 19.2521 23.1735 18.3199 23.1918 17.3776C23.1918 16.2749 23.258 15.9441 23.258 13.2316C23.258 10.5192 23.258 10.1663 23.1918 9.08573ZM20.9865 17.2783C20.9672 17.9781 20.8369 18.6703 20.6006 19.3292C20.4052 19.8501 20.0964 20.3209 19.6964 20.7075C19.3121 21.1076 18.8404 21.4133 18.3182 21.6007C17.6577 21.8467 16.9608 21.9808 16.2562 21.9976C15.2197 21.9976 14.9 22.0528 12.2206 22.0528C9.54115 22.0528 9.23241 22.0528 8.19593 22.0528C7.49247 22.0346 6.79641 21.9043 6.13399 21.6668C5.61317 21.4714 5.14236 21.1626 4.7557 20.7627C4.35561 20.3783 4.04992 19.9066 3.86256 19.3844C3.61756 18.7274 3.48342 18.0344 3.46561 17.3335C3.46561 16.2308 3.46561 15.9552 3.46561 13.2868C3.46561 10.6184 3.46561 10.2986 3.46561 9.2401C3.48462 8.53574 3.6187 7.83923 3.86256 7.17816C4.05283 6.66062 4.35823 6.19309 4.7557 5.81089C5.14005 5.4108 5.61179 5.10511 6.13399 4.91775C6.79447 4.67175 7.49133 4.53759 8.19593 4.5208C9.23241 4.41054 9.55217 4.41054 12.2316 4.41054C14.911 4.41054 15.2308 4.41054 16.2672 4.41054C16.9753 4.42854 17.6756 4.56264 18.3402 4.80749C18.8577 4.99776 19.3253 5.30316 19.7075 5.70063C20.1076 6.08498 20.4133 6.55672 20.6006 7.07892C20.8705 7.74995 21.0234 8.46228 21.0527 9.18496C21.0527 10.2876 21.1078 10.5633 21.1078 13.2316C21.1078 15.9 21.0527 16.2198 21.0527 17.2783H20.9865Z" fill="white" fill-opacity="0.5"/>
</svg>
