<svg width="26" height="25" viewBox="0 0 26 25" fill="none" xmlns="http://www.w3.org/2000/svg">
<path d="M17.6737 9.37139C16.7414 9.37099 15.8235 9.60159 15.0021 10.0426C14.9271 9.84517 14.7939 9.67522 14.62 9.55534C14.4462 9.43545 14.24 9.37129 14.0288 9.37139H9.8633C9.72652 9.37131 9.59107 9.39819 9.46469 9.4505C9.33831 9.5028 9.22348 9.57951 9.12676 9.67622C9.03004 9.77294 8.95334 9.88777 8.90103 10.0142C8.84872 10.1405 8.82184 10.276 8.82192 10.4128V22.9093C8.82184 23.0461 8.84872 23.1816 8.90103 23.3079C8.95333 23.4343 9.03004 23.5492 9.12675 23.6459C9.22347 23.7426 9.3383 23.8193 9.46469 23.8716C9.59107 23.9239 9.72652 23.9508 9.8633 23.9507H14.0288C14.1656 23.9508 14.3011 23.9239 14.4274 23.8716C14.5538 23.8193 14.6687 23.7426 14.7654 23.6459C14.8621 23.5492 14.9388 23.4343 14.9911 23.3079C15.0434 23.1816 15.0703 23.0461 15.0702 22.9093V17.1817C15.0702 16.9056 15.1799 16.6407 15.3752 16.4454C15.5705 16.2501 15.8354 16.1404 16.1116 16.1404C16.3878 16.1404 16.6527 16.2501 16.848 16.4454C17.0433 16.6407 17.153 16.9056 17.153 17.1817V22.9093C17.1529 23.0461 17.1798 23.1816 17.2321 23.3079C17.2844 23.4343 17.3611 23.5492 17.4578 23.6459C17.5545 23.7426 17.6694 23.8193 17.7957 23.8716C17.9221 23.9239 18.0576 23.9508 18.1943 23.9507H22.3599C22.4967 23.9508 22.6321 23.9239 22.7585 23.8716C22.8849 23.8193 22.9997 23.7426 23.0964 23.6459C23.1931 23.5492 23.2698 23.4343 23.3221 23.3079C23.3745 23.1816 23.4013 23.0461 23.4013 22.9093V15.099C23.3994 13.5805 22.7953 12.1248 21.7216 11.051C20.6479 9.97732 19.1921 9.37327 17.6737 9.37139ZM21.3185 21.868H19.2357V17.1817C19.2357 16.3532 18.9066 15.5585 18.3207 14.9726C17.7348 14.3867 16.9402 14.0576 16.1116 14.0576C15.283 14.0576 14.4884 14.3867 13.9025 14.9726C13.3166 15.5585 12.9874 16.3532 12.9874 17.1817V21.868H10.9047V11.4541H12.9874V12.1864C12.9876 12.4021 13.0547 12.6126 13.1795 12.7886C13.3044 12.9645 13.4808 13.0974 13.6844 13.1689C13.888 13.2403 14.1087 13.2468 14.3162 13.1874C14.5236 13.128 14.7075 13.0056 14.8424 12.8372C15.3097 12.2437 15.9508 11.8109 16.676 11.5993C17.4012 11.3877 18.1744 11.4078 18.8876 11.6569C19.6008 11.906 20.2185 12.3716 20.6543 12.9887C21.0901 13.6058 21.3223 14.3435 21.3185 15.099V21.868ZM6.73916 9.37139H2.57363C2.43685 9.37131 2.3014 9.39819 2.17502 9.4505C2.04864 9.5028 1.93381 9.57951 1.83709 9.67622C1.74037 9.77294 1.66367 9.88777 1.61136 10.0142C1.55906 10.1405 1.53217 10.276 1.53225 10.4128V22.9093C1.53217 23.0461 1.55905 23.1816 1.61136 23.3079C1.66367 23.4343 1.74037 23.5492 1.83709 23.6459C1.9338 23.7426 2.04864 23.8193 2.17502 23.8716C2.3014 23.9239 2.43685 23.9508 2.57363 23.9507H6.73916C6.87594 23.9508 7.01139 23.9239 7.13777 23.8716C7.26415 23.8193 7.37898 23.7426 7.4757 23.6459C7.57242 23.5492 7.64912 23.4343 7.70143 23.3079C7.75374 23.1816 7.78062 23.0461 7.78054 22.9093V10.4128C7.78062 10.276 7.75373 10.1405 7.70143 10.0142C7.64912 9.88777 7.57241 9.77294 7.4757 9.67622C7.37898 9.57951 7.26415 9.5028 7.13777 9.4505C7.01139 9.39819 6.87593 9.37131 6.73916 9.37139ZM5.69778 21.868H3.61501V11.4541H5.69778V21.868ZM4.67165 1.60581C4.2159 1.57853 3.75937 1.64423 3.32981 1.79893C2.90025 1.95362 2.50664 2.19407 2.17293 2.50566C1.83921 2.81724 1.57236 3.19345 1.3886 3.6114C1.20484 4.02936 1.10802 4.48032 1.10401 4.93686C1.10001 5.39341 1.18891 5.846 1.3653 6.26712C1.5417 6.68823 1.80191 7.06906 2.13011 7.38645C2.4583 7.70385 2.84763 7.95116 3.27441 8.11337C3.70119 8.27558 4.1565 8.34928 4.61266 8.33H4.64215C5.0991 8.35715 5.55679 8.29083 5.98725 8.13511C6.41771 7.97939 6.8119 7.73754 7.14573 7.42432C7.47956 7.11111 7.74603 6.73312 7.92884 6.31345C8.11165 5.89378 8.20697 5.44124 8.20898 4.98348C8.21099 4.52573 8.11964 4.07237 7.94051 3.65111C7.76139 3.22985 7.49825 2.84954 7.16718 2.53341C6.83611 2.21729 6.44406 1.97198 6.01498 1.81249C5.58591 1.653 5.12882 1.58268 4.67164 1.60581H4.67165ZM4.64216 6.24724H4.61266C4.43257 6.26911 4.24988 6.25222 4.07686 6.1977C3.90383 6.14319 3.74446 6.0523 3.60943 5.93115C3.47441 5.80999 3.36685 5.66137 3.29397 5.49524C3.22109 5.32911 3.18457 5.14931 3.18687 4.96792C3.18687 4.19094 3.7696 3.68856 4.67165 3.68856C4.85358 3.66431 5.03859 3.67932 5.21423 3.73259C5.38986 3.78586 5.55204 3.87616 5.68985 3.99738C5.82765 4.11861 5.93787 4.26796 6.01309 4.43538C6.08832 4.60279 6.12679 4.78438 6.12592 4.96792C6.12592 5.74488 5.54319 6.24724 4.64216 6.24724Z" fill="white" fill-opacity="0.5"/>
</svg>
