<svg width="26" height="25" viewBox="0 0 26 25" fill="none" xmlns="http://www.w3.org/2000/svg">
<g clip-path="url(#clip0_63_1393)">
<path d="M23.399 4.11367C23.3991 3.92973 23.3505 3.74904 23.2581 3.59001C23.1656 3.43097 23.0327 3.29928 22.8728 3.20833C22.7129 3.11738 22.5318 3.07043 22.3479 3.07225C22.1639 3.07408 21.9838 3.12462 21.8257 3.21873C21.2162 3.58153 20.56 3.85937 19.8752 4.04454C18.8974 3.20543 17.6502 2.74626 16.3616 2.75095C14.948 2.75258 13.5904 3.3035 12.5754 4.28738C11.5604 5.27127 10.9675 6.6111 10.9218 8.02396C8.13507 7.57957 5.60936 6.12503 3.82632 3.93773C3.71889 3.80739 3.58169 3.70479 3.42629 3.63859C3.27089 3.57239 3.10185 3.54453 2.93342 3.55737C2.76509 3.57123 2.60267 3.62588 2.46021 3.7166C2.31775 3.80733 2.19953 3.93139 2.11577 4.07806C1.68623 4.82766 1.43953 5.66799 1.39571 6.53083C1.35189 7.39366 1.51217 8.25467 1.86356 9.04393L1.86153 9.04596C1.7036 9.14323 1.57327 9.2794 1.48299 9.44143C1.39272 9.60346 1.34552 9.78594 1.34592 9.97142C1.34401 10.1244 1.35319 10.2774 1.37338 10.4291C1.47975 11.7394 2.06047 12.9659 3.00664 13.8786C2.94245 14.0009 2.90328 14.1348 2.89141 14.2724C2.87953 14.4099 2.8952 14.5485 2.93748 14.68C3.34999 15.9652 4.22723 17.0502 5.39755 17.7228C4.20854 18.1826 2.92471 18.3429 1.65915 18.1896C1.42491 18.1602 1.18764 18.2113 0.986257 18.3345C0.784872 18.4576 0.631332 18.6456 0.550821 18.8675C0.47031 19.0895 0.46761 19.3321 0.543162 19.5558C0.618715 19.7795 0.768035 19.9708 0.966628 20.0984C3.14321 21.5003 5.6775 22.2456 8.26647 22.2453C11.2024 22.2783 14.0669 21.3401 16.4145 19.5767C18.762 17.8133 20.461 15.3234 21.2471 12.4945C21.6148 11.2622 21.8025 9.98318 21.8044 8.69716C21.8044 8.62902 21.8044 8.55886 21.8034 8.48869C22.3471 7.90232 22.7683 7.21331 23.0423 6.46205C23.3163 5.7108 23.4376 4.9124 23.399 4.11367ZM19.9555 7.45849C19.7835 7.66192 19.6965 7.92378 19.7125 8.1897C19.7226 8.36153 19.7216 8.53439 19.7216 8.69716C19.7195 9.78389 19.5602 10.8646 19.2487 11.9057C18.6067 14.3128 17.1755 16.4347 15.1843 17.9318C13.1931 19.4288 10.7571 20.2143 8.26647 20.1625C7.3718 20.1628 6.48021 20.0577 5.61014 19.8493C6.71964 19.4917 7.75704 18.9405 8.67427 18.2211C8.84321 18.0881 8.96685 17.9061 9.02823 17.7C9.0896 17.4939 9.0857 17.2739 9.01707 17.0701C8.94844 16.8664 8.81843 16.6888 8.64489 16.5619C8.47134 16.4349 8.26277 16.3648 8.04778 16.3611C7.18222 16.3476 6.35567 15.9987 5.7423 15.3878C5.8979 15.3583 6.05248 15.3217 6.20605 15.278C6.43099 15.214 6.62785 15.0761 6.76491 14.8866C6.90198 14.6971 6.97127 14.4669 6.96164 14.2333C6.95201 13.9996 6.86402 13.7759 6.71183 13.5983C6.55964 13.4207 6.35211 13.2995 6.12265 13.2542C5.62022 13.155 5.14745 12.9413 4.74107 12.6296C4.33469 12.3179 4.00565 11.9167 3.77954 11.4572C3.96775 11.4829 4.15716 11.4989 4.34701 11.505C4.57256 11.5084 4.79334 11.44 4.97744 11.3097C5.16154 11.1793 5.29941 10.9938 5.37111 10.7799C5.43982 10.5641 5.43628 10.3318 5.36104 10.1182C5.28579 9.90454 5.14294 9.72128 4.95415 9.59617C4.4961 9.29101 4.12088 8.87701 3.86211 8.39124C3.60334 7.90548 3.4691 7.36311 3.4714 6.81272C3.4714 6.74357 3.47343 6.67442 3.4775 6.60628C5.81151 8.78303 8.83887 10.0662 12.0262 10.2298C12.1871 10.2361 12.3473 10.2058 12.4948 10.1411C12.6422 10.0765 12.7731 9.97916 12.8774 9.85652C12.9807 9.73271 13.0538 9.5866 13.0911 9.42972C13.1283 9.27284 13.1286 9.10946 13.0919 8.95244C13.0324 8.70393 13.002 8.44932 13.0014 8.19377C13.0024 7.30291 13.3567 6.4488 13.9866 5.81887C14.6166 5.18893 15.4707 4.83462 16.3615 4.83368C16.8199 4.83245 17.2735 4.92626 17.6938 5.10918C18.114 5.29209 18.4918 5.56015 18.8033 5.89642C18.9234 6.02564 19.0746 6.12198 19.2424 6.17628C19.4103 6.23058 19.5892 6.24103 19.7623 6.20664C20.1901 6.12339 20.6117 6.01127 21.0243 5.87104C20.7429 6.4469 20.3832 6.9811 19.9555 7.45849Z" fill="white" fill-opacity="0.5"/>
</g>
<defs>
<clipPath id="clip0_63_1393">
<rect width="24.9931" height="24.9931" fill="white" transform="translate(0.456421)"/>
</clipPath>
</defs>
</svg>
